<svg xmlns="http://www.w3.org/2000/svg" version="1.1" xmlns:xlink="http://www.w3.org/1999/xlink" xmlns:svgjs="http://svgjs.dev/svgjs" width="1000" height="1000" viewBox="0 0 1000 1000"><rect width="1000" height="1000" fill="#ffffff"></rect><g transform="matrix(0.7,0,0,0.7,149.57579435406444,435.39591937325457)"><svg viewBox="0 0 396 73" data-background-color="#ffffff" preserveAspectRatio="xMidYMid meet" height="184" width="1000" xmlns="http://www.w3.org/2000/svg" xmlns:xlink="http://www.w3.org/1999/xlink"><g id="tight-bounds" transform="matrix(1,0,0,1,0.23997919398641443,0.11566681484791275)"><svg viewBox="0 0 395.52 72.76848651640485" height="72.76848651640485" width="395.52"><g><svg viewBox="0 0 494.9770503791831 91.0667749202251" height="72.76848651640485" width="395.52"><g transform="matrix(1,0,0,1,99.4570503791831,12.585929095342259)"><svg viewBox="0 0 395.52 65.89491672954058" height="65.89491672954058" width="395.52"><g id="textblocktransform"><svg viewBox="0 0 395.52 65.89491672954058" height="65.89491672954058" width="395.52" id="textblock"><g><svg viewBox="0 0 395.52 35.54056938849356" height="35.54056938849356" width="395.52"><g transform="matrix(1,0,0,1,0,0)"><svg width="395.52" viewBox="1.51 -36.38 411.2109458583228 36.82" height="35.54056938849356" data-palette-color="#111111"><g transform="matrix(1,0,0,1,0,0)"><g><svg width="4.420553661451776" viewBox="3.16 -36.36 28.68 36.36" height="5.605754736008197" data-palette-color="#111111" id="scriptelement" x="405.03260902759695" y="-33.7048173680041"><path d="M10.85 0L3.16 0 3.16-36.36 17.51-36.36Q21.63-36.36 24.55-34.9 27.47-33.43 29-30.76 30.54-28.09 30.54-24.49L30.54-24.49Q30.54-20.86 28.98-18.26 27.41-15.66 24.46-14.28 21.5-12.89 17.31-12.89L17.31-12.89 7.71-12.89 7.71-19.07 16.07-19.07Q18.27-19.07 19.73-19.67 21.18-20.28 21.9-21.48 22.62-22.69 22.62-24.49L22.62-24.49Q22.62-26.3 21.9-27.54 21.18-28.78 19.72-29.43 18.25-30.08 16.03-30.08L16.03-30.08 10.85-30.08 10.85 0ZM14.51-16.55L22.8-16.55 31.84 0 23.35 0 14.51-16.55Z" opacity="1" transform="matrix(1,0,0,1,0,0)" fill="#111111" class="undefined-123" data-fill-palette-color="primary" id="sv-123"></path></svg></g></g><path d="M401.765-30.902C401.765-33.927 404.217-36.38 407.243-36.38 410.268-36.38 412.721-33.927 412.721-30.902 412.721-27.876 410.268-25.424 407.243-25.424 404.217-25.424 401.765-27.876 401.765-30.902ZM407.243-25.977C409.963-25.977 412.168-28.182 412.168-30.902 412.168-33.622 409.963-35.827 407.243-35.827 404.523-35.827 402.318-33.622 402.318-30.902 402.318-28.182 404.523-25.977 407.243-25.977Z" fill="#111111" id="scriptcircle" data-fill-palette-color="primary"></path><path d="M1.51-36.04L11.04-35.99Q13.92-35.99 17.48-35.57 21.04-35.16 24.66-34.25 28.27-33.35 31.69-31.84 35.11-30.32 37.74-28.15 40.38-25.98 41.99-23.05 43.6-20.12 43.6-16.36L43.6-16.36Q43.6-12.26 41.77-9.45 39.94-6.64 36.94-4.83 33.94-3.03 30.13-2.03 26.32-1.03 22.36-0.59 18.41-0.15 14.7-0.07 10.99 0 8.15 0L8.15 0 2.29 0Q2.44-0.29 2.54-1.46 2.64-2.64 2.71-4.27 2.78-5.91 2.83-7.81 2.88-9.72 2.91-11.4 2.93-13.09 2.93-14.38 2.93-15.67 2.93-16.16L2.93-16.16Q2.93-16.7 2.93-18.33 2.93-19.97 2.88-22.09 2.83-24.22 2.76-26.61 2.69-29 2.51-31.03 2.34-33.06 2.1-34.45 1.86-35.84 1.51-36.04L1.51-36.04ZM10.3-4.35L10.3-4.35Q10.94-4.35 11.57-4.32 12.21-4.3 12.84-4.3L12.84-4.3Q14.7-4.3 17.16-4.44 19.63-4.59 22.27-5.03 24.9-5.47 27.44-6.25 29.98-7.03 31.98-8.35 33.98-9.67 35.23-11.55 36.47-13.43 36.47-16.02L36.47-16.02Q36.47-18.85 35.38-21.09 34.28-23.34 32.45-25.07 30.62-26.81 28.2-28 25.78-29.2 23.17-29.98 20.56-30.76 17.92-31.1 15.28-31.45 12.99-31.45L12.99-31.45Q12.35-31.45 11.72-31.42 11.08-31.4 10.45-31.35L10.45-31.35Q10.21-27.39 10.16-23.49 10.11-19.58 10.11-15.63L10.11-15.63Q10.11-12.79 10.13-9.99 10.16-7.18 10.3-4.35ZM47.17 0Q47.46-0.29 47.65-1.88 47.85-3.47 47.97-5.71 48.09-7.96 48.12-10.6 48.14-13.23 48.14-15.63 48.14-18.02 48.12-19.85 48.09-21.68 48.09-22.41L48.09-22.41Q48.09-22.85 48.12-23.97 48.14-25.1 48.12-26.56 48.09-28.03 48.02-29.64 47.95-31.25 47.75-32.62 47.56-33.98 47.21-34.91 46.87-35.84 46.38-35.99L46.38-35.99 57.32-35.99Q56.69-35.99 56.27-34.86 55.86-33.74 55.61-32.03 55.37-30.32 55.25-28.25 55.12-26.17 55.08-24.27 55.03-22.36 55.03-20.87 55.03-19.38 55.03-18.85L55.03-18.85Q55.03-15.97 55-13.11 54.98-10.25 54.98-7.32L54.98-7.32Q54.98-6.93 54.98-5.81 54.98-4.69 55.03-3.49 55.08-2.29 55.25-1.27 55.42-0.24 55.71 0L55.71 0 47.17 0ZM95.84-6.1L95.84-6.1Q95.84-7.37 95.8-8.57 95.75-9.77 95.6-11.04L95.6-11.04 93.21-11.04Q92.62-11.04 91.77-11.06 90.91-11.08 90.01-11.06 89.11-11.04 88.28-10.99 87.45-10.94 86.86-10.79L86.86-10.79 87.59-15.87Q88.67-15.63 89.99-15.63 91.3-15.63 92.43-15.63L92.43-15.63Q93.01-15.58 94.36-15.55 95.7-15.53 97.41-15.5 99.12-15.48 101-15.48 102.88-15.48 104.51-15.5 106.15-15.53 107.34-15.58 108.54-15.63 108.88-15.77L108.88-15.77 108.93-10.5Q107.86-10.74 106.34-10.77 104.83-10.79 103.71-10.84L103.71-10.84Q103.41-8.98 103.32-7.03 103.22-5.08 103.22-3.17L103.22-3.17 103.22-2.29Q101.12-1.61 98.8-1.1 96.48-0.59 94.06-0.27 91.65 0.05 89.25 0.2 86.86 0.34 84.66 0.34L84.66 0.34Q82.47 0.34 79.8 0.05 77.14-0.24 74.41-0.93 71.67-1.61 69.09-2.71 66.5-3.81 64.5-5.42 62.5-7.03 61.27-9.2 60.05-11.38 60.05-14.21L60.05-14.21Q60.05-17.63 61.35-20.58 62.64-23.54 64.84-25.98 67.04-28.42 69.94-30.32 72.85-32.23 76.04-33.52 79.24-34.81 82.54-35.5 85.83-36.18 88.86-36.18L88.86-36.18Q91.74-36.18 94.72-35.72 97.7-35.25 100.14-34.01 102.58-32.76 104.15-30.57 105.71-28.37 105.71-24.85L105.71-24.85Q105.71-23.58 105.51-22.29 105.32-21 104.93-19.78L104.93-19.78 95.31-19.78Q96.19-20.9 96.97-22.39 97.75-23.88 97.75-25.44L97.75-25.44Q97.75-27.15 96.6-28.27 95.45-29.39 93.82-30.03 92.18-30.66 90.4-30.91 88.62-31.15 87.3-31.15L87.3-31.15Q84.08-31.15 80.78-29.98 77.49-28.81 74.82-26.68 72.16-24.56 70.45-21.66 68.75-18.75 68.75-15.28L68.75-15.28Q68.75-13.23 69.53-11.65 70.31-10.06 71.6-8.91 72.9-7.76 74.6-7.01 76.31-6.25 78.14-5.79 79.98-5.32 81.83-5.13 83.69-4.93 85.35-4.93L85.35-4.93Q87.98-4.93 90.6-5.25 93.21-5.57 95.84-6.1ZM112.2 0Q112.49-0.29 112.69-1.88 112.88-3.47 113.01-5.71 113.13-7.96 113.15-10.6 113.18-13.23 113.18-15.63 113.18-18.02 113.15-19.85 113.13-21.68 113.13-22.41L113.13-22.41Q113.13-22.85 113.15-23.97 113.18-25.1 113.15-26.56 113.13-28.03 113.05-29.64 112.98-31.25 112.79-32.62 112.59-33.98 112.25-34.91 111.91-35.84 111.42-35.99L111.42-35.99 122.36-35.99Q121.72-35.99 121.31-34.86 120.89-33.74 120.65-32.03 120.4-30.32 120.28-28.25 120.16-26.17 120.11-24.27 120.06-22.36 120.06-20.87 120.06-19.38 120.06-18.85L120.06-18.85Q120.06-15.97 120.04-13.11 120.01-10.25 120.01-7.32L120.01-7.32Q120.01-6.93 120.01-5.81 120.01-4.69 120.06-3.49 120.11-2.29 120.28-1.27 120.45-0.24 120.74 0L120.74 0 112.2 0ZM177.48-19.92Q178.31-21.04 179.11-22.53 179.92-24.02 179.92-25.54L179.92-25.54Q179.92-27.25 178.77-28.34 177.62-29.44 176.01-30.08 174.4-30.71 172.62-30.96 170.84-31.2 169.52-31.2L169.52-31.2Q166.34-31.2 163.1-30.03 159.85-28.86 157.21-26.76 154.58-24.66 152.89-21.78 151.21-18.9 151.21-15.48L151.21-15.48Q151.21-13.43 151.97-11.87 152.72-10.3 154.02-9.18 155.31-8.06 156.97-7.28 158.63-6.49 160.46-6.05 162.29-5.62 164.15-5.42 166-5.22 167.61-5.22L167.61-5.22Q171.62-5.22 175.57-5.91 179.53-6.59 183.43-7.67L183.43-7.67 185.34-2.59Q183.24-1.9 180.92-1.42 178.6-0.93 176.23-0.63 173.86-0.34 171.5-0.2 169.13-0.05 166.93-0.05L166.93-0.05Q164.78-0.05 162.12-0.34 159.46-0.63 156.77-1.29 154.09-1.95 151.53-3.03 148.96-4.1 146.96-5.71 144.96-7.32 143.76-9.47 142.57-11.62 142.57-14.4L142.57-14.4Q142.57-17.77 143.86-20.73 145.15-23.68 147.3-26.1 149.45-28.52 152.33-30.4 155.21-32.28 158.39-33.57 161.56-34.86 164.83-35.52 168.1-36.18 171.13-36.18L171.13-36.18Q173.96-36.18 176.92-35.74 179.87-35.3 182.29-34.06 184.7-32.81 186.24-30.64 187.78-28.47 187.78-24.95L187.78-24.95Q187.78-23.68 187.59-22.41 187.39-21.14 187-19.92L187-19.92 177.48-19.92ZM210.68-36.28L210.68-36.28Q214.68-36.28 218.49-34.96 222.3-33.64 225.25-31.18 228.21-28.71 229.99-25.22 231.77-21.73 231.77-17.38L231.77-17.38Q231.77-13.09 229.89-9.77 228.01-6.45 224.99-4.17 221.96-1.9 218.15-0.73 214.34 0.44 210.48 0.44L210.48 0.44Q206.28 0.44 202.5-0.71 198.72-1.86 195.86-4.13 193-6.4 191.29-9.79 189.58-13.18 189.58-17.72L189.58-17.72Q189.58-22.22 191.37-25.68 193.15-29.15 196.08-31.49 199.01-33.84 202.82-35.06 206.63-36.28 210.68-36.28ZM197.79-17.77L197.79-17.77Q197.79-15.04 198.74-12.6 199.69-10.16 201.4-8.33 203.11-6.49 205.43-5.42 207.75-4.35 210.53-4.35L210.53-4.35Q213.12-4.35 215.49-5.44 217.86-6.54 219.64-8.37 221.42-10.21 222.49-12.57 223.57-14.94 223.57-17.53L223.57-17.53Q223.57-21.09 222.54-23.71 221.52-26.32 219.76-28.05 218-29.79 215.66-30.64 213.32-31.49 210.68-31.49L210.68-31.49Q207.94-31.49 205.6-30.35 203.26-29.2 201.52-27.29 199.79-25.39 198.79-22.92 197.79-20.46 197.79-17.77ZM234.55-36.04L244.07-35.99Q246.96-35.99 250.52-35.57 254.08-35.16 257.7-34.25 261.31-33.35 264.73-31.84 268.15-30.32 270.78-28.15 273.42-25.98 275.03-23.05 276.64-20.12 276.64-16.36L276.64-16.36Q276.64-12.26 274.81-9.45 272.98-6.64 269.98-4.83 266.97-3.03 263.17-2.03 259.36-1.03 255.4-0.59 251.45-0.15 247.74-0.07 244.03 0 241.19 0L241.19 0 235.33 0Q235.48-0.29 235.58-1.46 235.68-2.64 235.75-4.27 235.82-5.91 235.87-7.81 235.92-9.72 235.94-11.4 235.97-13.09 235.97-14.38 235.97-15.67 235.97-16.16L235.97-16.16Q235.97-16.7 235.97-18.33 235.97-19.97 235.92-22.09 235.87-24.22 235.8-26.61 235.72-29 235.55-31.03 235.38-33.06 235.14-34.45 234.89-35.84 234.55-36.04L234.55-36.04ZM243.34-4.35L243.34-4.35Q243.98-4.35 244.61-4.32 245.25-4.3 245.88-4.3L245.88-4.3Q247.74-4.3 250.2-4.44 252.67-4.59 255.3-5.03 257.94-5.47 260.48-6.25 263.02-7.03 265.02-8.35 267.02-9.67 268.27-11.55 269.51-13.43 269.51-16.02L269.51-16.02Q269.51-18.85 268.42-21.09 267.32-23.34 265.49-25.07 263.65-26.81 261.24-28 258.82-29.2 256.21-29.98 253.6-30.76 250.96-31.1 248.32-31.45 246.03-31.45L246.03-31.45Q245.39-31.45 244.76-31.42 244.12-31.4 243.49-31.35L243.49-31.35Q243.24-27.39 243.2-23.49 243.15-19.58 243.15-15.63L243.15-15.63Q243.15-12.79 243.17-9.99 243.2-7.18 243.34-4.35ZM315.65-0.1L280.2 0Q280.5-0.29 280.69-1.88 280.89-3.47 281.01-5.71 281.13-7.96 281.16-10.6 281.18-13.23 281.18-15.63 281.18-18.02 281.16-19.85 281.13-21.68 281.13-22.41L281.13-22.41Q281.13-22.85 281.13-23.93 281.13-25 281.11-26.32 281.08-27.64 281.03-29.13 280.99-30.62 280.86-31.88 280.74-33.15 280.55-34.11 280.35-35.06 280.06-35.4L280.06-35.4Q279.91-35.55 279.74-35.69 279.57-35.84 279.42-35.99L279.42-35.99 314.87-35.89 314.34-30.47Q314.09-30.57 313.14-30.62 312.19-30.66 310.82-30.71 309.45-30.76 307.89-30.79 306.33-30.81 304.94-30.81 303.54-30.81 302.47-30.81 301.4-30.81 301.01-30.81L301.01-30.81Q294.76-30.81 288.46-30.66L288.46-30.66Q288.21-28.22 288.16-25.81 288.11-23.39 288.11-20.9L288.11-20.9 310.58-21.14 310.53-15.92Q310.33-15.97 309.57-16.04 308.82-16.11 307.79-16.14 306.77-16.16 305.57-16.19 304.37-16.21 303.32-16.21 302.27-16.21 301.44-16.21 300.61-16.21 300.32-16.21L300.32-16.21Q294.22-16.21 288.07-16.06L288.07-16.06Q288.07-13.87 288.04-11.69 288.02-9.52 288.02-7.32L288.02-7.32 288.02-5.37Q291.48-5.22 294.93-5.22 298.37-5.22 301.84-5.22L301.84-5.22Q302.18-5.22 303.25-5.22 304.33-5.22 305.74-5.22 307.16-5.22 308.7-5.25 310.23-5.27 311.6-5.3 312.97-5.32 313.92-5.37 314.87-5.42 315.12-5.52L315.12-5.52 315.65-0.1ZM342.31-14.26L342.31-14.26Q342.75-13.87 344.07-12.65 345.39-11.43 347.12-9.86 348.85-8.3 350.78-6.59 352.71-4.88 354.4-3.44 356.08-2 357.3-1.03 358.52-0.05 358.86 0L358.86 0 348.76 0Q348.46-0.39 347.93-0.95 347.39-1.51 346.8-2.08 346.22-2.64 345.66-3.17 345.09-3.71 344.7-4.05L344.7-4.05Q342.31-6.4 339.89-8.62 337.48-10.84 334.94-13.04L334.94-13.04Q332.94-12.79 330.98-12.72 329.03-12.65 327.03-12.55L327.03-12.55Q326.98-11.23 326.98-9.94 326.98-8.64 326.98-7.32L326.98-7.32Q326.98-6.88 326.98-5.81 326.98-4.74 327.03-3.52 327.08-2.29 327.25-1.29 327.42-0.29 327.71 0L327.71 0 319.17 0Q319.46-0.29 319.66-1.88 319.85-3.47 319.95-5.71 320.05-7.96 320.09-10.57 320.14-13.18 320.14-15.58 320.14-17.97 320.12-19.82 320.09-21.68 320.09-22.41L320.09-22.41Q320.09-22.85 320.12-23.97 320.14-25.1 320.12-26.56 320.09-28.03 320.02-29.64 319.95-31.25 319.75-32.62 319.56-33.98 319.22-34.91 318.87-35.84 318.39-35.99L318.39-35.99Q318.53-35.99 319.34-35.99 320.14-35.99 321.29-35.99 322.44-35.99 323.73-35.99 325.03-35.99 326.17-35.99 327.32-35.99 328.1-35.96 328.88-35.94 329.03-35.94L329.03-35.94Q330.79-35.94 333.5-35.86 336.21-35.79 339.26-35.45 342.31-35.11 345.39-34.45 348.46-33.79 350.93-32.57 353.4-31.35 354.96-29.52 356.52-27.69 356.52-25.05L356.52-25.05Q356.52-22.51 355.06-20.68 353.59-18.85 351.42-17.58 349.25-16.31 346.78-15.5 344.31-14.7 342.31-14.26ZM347.68-25.15L347.68-25.15Q347.68-26.61 346.46-27.61 345.24-28.61 343.31-29.22 341.38-29.83 339.02-30.13 336.65-30.42 334.4-30.54 332.16-30.66 330.28-30.66 328.4-30.66 327.42-30.66L327.42-30.66Q327.17-27.93 327.1-25.22 327.03-22.51 327.03-19.78L327.03-19.78 327.03-18.46Q328.93-18.51 330.84-18.55 332.74-18.6 334.6-18.75L334.6-18.75Q335.52-18.8 336.84-18.95 338.16-19.09 339.63-19.36 341.09-19.63 342.53-20.07 343.97-20.51 345.12-21.19 346.27-21.88 346.97-22.85 347.68-23.83 347.68-25.15ZM390.99-19.58Q391.23-20.65 391.43-21.7 391.63-22.75 391.63-23.88L391.63-23.88Q391.63-26.07 390.84-27.51 390.06-28.96 388.72-29.81 387.38-30.66 385.64-30.98 383.91-31.3 382.01-31.3L382.01-31.3Q380.83-31.3 379.32-31.13 377.81-30.96 376.22-30.59 374.63-30.22 373.07-29.64 371.51-29.05 370.31-28.17 369.12-27.29 368.36-26.1 367.6-24.9 367.6-23.39L367.6-23.39Q367.6-22.07 368.55-21.12 369.51-20.17 371-19.48 372.48-18.8 374.34-18.36 376.2-17.92 378-17.6 379.81-17.29 381.37-17.11 382.93-16.94 383.86-16.8L383.86-16.8Q385.03-16.6 386.72-16.33 388.4-16.06 390.21-15.63 392.02-15.19 393.8-14.55 395.58-13.92 397-13.01 398.41-12.11 399.29-10.91 400.17-9.72 400.17-8.15L400.17-8.15Q400.17-6.49 399.27-5.22 398.36-3.96 396.87-3 395.39-2.05 393.55-1.44 391.72-0.83 389.84-0.44 387.96-0.05 386.25 0.1 384.55 0.24 383.37 0.24L383.37 0.24Q378.2 0.24 373.12-0.61 368.04-1.46 363.21-3.37L363.21-3.37Q362.72-3.56 362.08-3.83 361.45-4.1 360.77-4.39 360.08-4.69 359.45-4.88 358.81-5.08 358.32-5.13L358.32-5.13Q358.62-5.42 359.23-5.96 359.84-6.49 360.45-7.13 361.06-7.76 361.57-8.33 362.08-8.89 362.18-9.18L362.18-9.18Q366.48-6.54 371.58-5.27 376.68-4 381.71-4L381.71-4Q382.54-4 384.33-4.13 386.11-4.25 387.89-4.64 389.67-5.03 391.02-5.74 392.36-6.45 392.36-7.62L392.36-7.62Q392.36-9.18 390.97-10.11 389.57-11.04 387.28-11.65 384.98-12.26 382.06-12.62 379.13-12.99 376.07-13.43 373.02-13.87 370.09-14.48 367.16-15.09 364.87-16.14 362.57-17.19 361.18-18.8 359.79-20.41 359.79-22.85L359.79-22.85Q359.79-25.44 360.84-27.44 361.89-29.44 363.67-30.96 365.45-32.47 367.72-33.5 369.99-34.52 372.46-35.16 374.93-35.79 377.37-36.08 379.81-36.38 381.86-36.38L381.86-36.38Q385.28-36.38 388.35-35.84 391.43-35.3 393.7-33.89 395.97-32.47 397.31-29.93 398.66-27.39 398.66-23.39L398.66-23.39Q398.66-22.41 398.58-21.48 398.51-20.56 398.41-19.58L398.41-19.58 390.99-19.58Z" opacity="1" transform="matrix(1,0,0,1,0,0)" fill="#111111" class="undefined-text-0" data-fill-palette-color="primary" id="text-0"></path></svg></g></svg></g><g transform="matrix(1,0,0,1,101.4338718596369,43.93084484745157)"><svg viewBox="0 0 167.95804337380196 21.96407188208902" height="21.96407188208902" width="167.95804337380196"><g transform="matrix(1,0,0,1,0,0)"><svg width="167.95804337380196" viewBox="3.85 -38.05 394.16999999999996 51.55" height="21.96407188208902" data-palette-color="#111111"><path d="M3.85-34.85L23.55-34.85 23.55-31.15 8.4-31.15 8.4-19.4 20.7-19.4 20.7-15.7 8.4-15.7 8.4 0 3.85 0 3.85-34.85ZM48.8-27.4L53.35-27.4 53.35 0 48.8 0 48.8-4.05Q47.5-1.95 45.17-0.78 42.85 0.4 40.05 0.4L40.05 0.4Q36.85 0.4 34.3-0.93 31.75-2.25 30.27-4.9 28.8-7.55 28.8-11.35L28.8-11.35 28.8-27.4 33.3-27.4 33.3-11.95Q33.3-7.9 35.35-5.73 37.4-3.55 40.95-3.55L40.95-3.55Q44.6-3.55 46.7-5.8 48.8-8.05 48.8-12.35L48.8-12.35 48.8-27.4ZM74.4-27.9Q79.4-27.9 82.5-24.88 85.6-21.85 85.6-16.15L85.6-16.15 85.6 0 81.1 0 81.1-15.5Q81.1-19.6 79.05-21.78 77-23.95 73.45-23.95L73.45-23.95Q69.85-23.95 67.72-21.7 65.6-19.45 65.6-15.15L65.6-15.15 65.6 0 61.05 0 61.05-27.4 65.6-27.4 65.6-23.5Q66.95-25.6 69.27-26.75 71.6-27.9 74.4-27.9L74.4-27.9ZM138.39-27.4L142.89-27.4 134.34 0 129.64 0 123.04-21.75 116.44 0 111.74 0 103.14-27.4 107.79-27.4 114.09-4.4 120.89-27.4 125.54-27.4 132.19-4.35 138.39-27.4ZM149.74-31.85Q148.44-31.85 147.54-32.75 146.64-33.65 146.64-34.95L146.64-34.95Q146.64-36.25 147.54-37.15 148.44-38.05 149.74-38.05L149.74-38.05Q150.99-38.05 151.86-37.15 152.74-36.25 152.74-34.95L152.74-34.95Q152.74-33.65 151.86-32.75 150.99-31.85 149.74-31.85L149.74-31.85ZM147.39-27.4L151.94-27.4 151.94 0 147.39 0 147.39-27.4ZM172.39-23.65L165.24-23.65 165.24-7.5Q165.24-5.5 166.09-4.67 166.94-3.85 169.04-3.85L169.04-3.85 172.39-3.85 172.39 0 168.29 0Q164.49 0 162.59-1.75 160.69-3.5 160.69-7.5L160.69-7.5 160.69-23.65 157.14-23.65 157.14-27.4 160.69-27.4 160.69-34.3 165.24-34.3 165.24-27.4 172.39-27.4 172.39-23.65ZM191.48-27.9Q194.58-27.9 197.08-26.58 199.58-25.25 201.01-22.6 202.43-19.95 202.43-16.15L202.43-16.15 202.43 0 197.93 0 197.93-15.5Q197.93-19.6 195.88-21.78 193.83-23.95 190.28-23.95L190.28-23.95Q186.68-23.95 184.56-21.7 182.43-19.45 182.43-15.15L182.43-15.15 182.43 0 177.88 0 177.88-37 182.43-37 182.43-23.5Q183.78-25.6 186.16-26.75 188.53-27.9 191.48-27.9L191.48-27.9ZM221.53-17.45Q221.53-22.55 223.83-26.63 226.13-30.7 230.1-33 234.08-35.3 238.93-35.3L238.93-35.3Q244.63-35.3 248.88-32.55 253.13-29.8 255.08-24.75L255.08-24.75 249.63-24.75Q248.18-27.9 245.45-29.6 242.73-31.3 238.93-31.3L238.93-31.3Q235.28-31.3 232.38-29.6 229.48-27.9 227.83-24.78 226.18-21.65 226.18-17.45L226.18-17.45Q226.18-13.3 227.83-10.18 229.48-7.05 232.38-5.35 235.28-3.65 238.93-3.65L238.93-3.65Q242.73-3.65 245.45-5.33 248.18-7 249.63-10.15L249.63-10.15 255.08-10.15Q253.13-5.15 248.88-2.43 244.63 0.3 238.93 0.3L238.93 0.3Q234.08 0.3 230.1-1.98 226.13-4.25 223.83-8.3 221.53-12.35 221.53-17.45L221.53-17.45ZM273.78 0.45Q269.93 0.45 266.8-1.3 263.68-3.05 261.9-6.28 260.13-9.5 260.13-13.75L260.13-13.75Q260.13-17.95 261.95-21.18 263.78-24.4 266.93-26.13 270.08-27.85 273.98-27.85L273.98-27.85Q277.88-27.85 281.03-26.13 284.18-24.4 286-21.2 287.83-18 287.83-13.75L287.83-13.75Q287.83-9.5 285.95-6.28 284.08-3.05 280.88-1.3 277.68 0.45 273.78 0.45L273.78 0.45ZM273.78-3.55Q276.23-3.55 278.38-4.7 280.53-5.85 281.85-8.15 283.18-10.45 283.18-13.75L283.18-13.75Q283.18-17.05 281.88-19.35 280.58-21.65 278.48-22.78 276.38-23.9 273.93-23.9L273.93-23.9Q271.43-23.9 269.35-22.78 267.28-21.65 266.03-19.35 264.78-17.05 264.78-13.75L264.78-13.75Q264.78-10.4 266-8.1 267.23-5.8 269.28-4.67 271.33-3.55 273.78-3.55L273.78-3.55ZM292.12-13.8Q292.12-18 293.82-21.18 295.52-24.35 298.5-26.1 301.47-27.85 305.17-27.85L305.17-27.85Q308.37-27.85 311.12-26.38 313.87-24.9 315.32-22.5L315.32-22.5 315.32-37 319.92-37 319.92 0 315.32 0 315.32-5.15Q313.97-2.7 311.32-1.13 308.67 0.45 305.12 0.45L305.12 0.45Q301.47 0.45 298.5-1.35 295.52-3.15 293.82-6.4 292.12-9.65 292.12-13.8L292.12-13.8ZM315.32-13.75Q315.32-16.85 314.07-19.15 312.82-21.45 310.7-22.68 308.57-23.9 306.02-23.9L306.02-23.9Q303.47-23.9 301.37-22.7 299.27-21.5 298.02-19.2 296.77-16.9 296.77-13.8L296.77-13.8Q296.77-10.65 298.02-8.33 299.27-6 301.37-4.78 303.47-3.55 306.02-3.55L306.02-3.55Q308.57-3.55 310.7-4.78 312.82-6 314.07-8.33 315.32-10.65 315.32-13.75L315.32-13.75ZM329.97-31.85Q328.67-31.85 327.77-32.75 326.87-33.65 326.87-34.95L326.87-34.95Q326.87-36.25 327.77-37.15 328.67-38.05 329.97-38.05L329.97-38.05Q331.22-38.05 332.1-37.15 332.97-36.25 332.97-34.95L332.97-34.95Q332.97-33.65 332.1-32.75 331.22-31.85 329.97-31.85L329.97-31.85ZM327.62-27.4L332.17-27.4 332.17 0 327.62 0 327.62-27.4ZM353.27-27.9Q358.27-27.9 361.37-24.88 364.47-21.85 364.47-16.15L364.47-16.15 364.47 0 359.97 0 359.97-15.5Q359.97-19.6 357.92-21.78 355.87-23.95 352.32-23.95L352.32-23.95Q348.72-23.95 346.59-21.7 344.47-19.45 344.47-15.15L344.47-15.15 344.47 0 339.92 0 339.92-27.4 344.47-27.4 344.47-23.5Q345.82-25.6 348.14-26.75 350.47-27.9 353.27-27.9L353.27-27.9ZM383.22-27.85Q386.77-27.85 389.44-26.3 392.12-24.75 393.42-22.4L393.42-22.4 393.42-27.4 398.02-27.4 398.02 0.6Q398.02 4.35 396.42 7.28 394.82 10.2 391.84 11.85 388.87 13.5 384.92 13.5L384.92 13.5Q379.52 13.5 375.92 10.95 372.32 8.4 371.67 4L371.67 4 376.17 4Q376.92 6.5 379.27 8.03 381.62 9.55 384.92 9.55L384.92 9.55Q388.67 9.55 391.04 7.2 393.42 4.85 393.42 0.6L393.42 0.6 393.42-5.15Q392.07-2.75 389.42-1.15 386.77 0.45 383.22 0.45L383.22 0.45Q379.57 0.45 376.59-1.35 373.62-3.15 371.92-6.4 370.22-9.65 370.22-13.8L370.22-13.8Q370.22-18 371.92-21.18 373.62-24.35 376.59-26.1 379.57-27.85 383.22-27.85L383.22-27.85ZM393.42-13.75Q393.42-16.85 392.17-19.15 390.92-21.45 388.79-22.68 386.67-23.9 384.12-23.9L384.12-23.9Q381.57-23.9 379.47-22.7 377.37-21.5 376.12-19.2 374.87-16.9 374.87-13.8L374.87-13.8Q374.87-10.65 376.12-8.33 377.37-6 379.47-4.78 381.57-3.55 384.12-3.55L384.12-3.55Q386.67-3.55 388.79-4.78 390.92-6 392.17-8.33 393.42-10.65 393.42-13.75L393.42-13.75Z" opacity="1" transform="matrix(1,0,0,1,0,0)" fill="#111111" class="undefined-text-1" data-fill-palette-color="secondary" id="text-1"></path></svg></g></svg></g></svg></g></svg></g><g><svg viewBox="0 0 91.0667749202251 91.0667749202251" height="91.0667749202251" width="91.0667749202251"><g><svg></svg></g><g id="icon-0"><svg viewBox="0 0 91.0667749202251 91.0667749202251" height="91.0667749202251" width="91.0667749202251"><g><path transform="scale(0.91067,0.91067)" d="M30 100c-16.569 0-30-13.431-30-30v-40c0-16.569 13.431-30 30-30h40c16.569 0 30 13.431 30 30v40c0 16.569-13.431 30-30 30z" fill="#7fdbff" fill-rule="nonzero" stroke="none" stroke-width="1" stroke-linecap="butt" stroke-linejoin="miter" stroke-miterlimit="10" stroke-dasharray="" stroke-dashoffset="0" font-family="none" font-weight="none" font-size="none" text-anchor="none" style="mix-blend-mode: normal" data-fill-palette-color="accent"></path></g><g transform="matrix(1,0,0,1,16.90297514928618,18.21335498404502)"><svg viewBox="0 0 57.26082462165274 54.64006495213506" height="54.64006495213506" width="57.26082462165274"><g><svg xmlns="http://www.w3.org/2000/svg" xmlns:xlink="http://www.w3.org/1999/xlink" version="1.1" x="0" y="0" viewBox="0 2.289 99.99987504880269 95.423" enable-background="new 0 0 100 100" xml:space="preserve" height="54.64006495213506" width="57.26082462165274" class="icon-g$-0" data-fill-palette-color="quaternary" id="g$-0"><g fill="#ffffff" data-fill-palette-color="quaternary"><path d="M99.279 18.508L83.756 2.982c-0.923-0.924-2.558-0.924-3.48 0l-9.656 9.659c-0.756-2.6-3.13-4.516-5.968-4.516H6.243C2.8 8.126 0 10.928 0 14.37v46.522c0 3.443 2.8 6.243 6.243 6.243h10.016l-3.005 3.006c-0.01 0.009-0.019 0.021-0.029 0.029l-0.055 0.055c-0.078 0.077-0.138 0.164-0.202 0.248-0.079 0.102-0.147 0.207-0.209 0.32-0.054 0.1-0.107 0.199-0.146 0.304-0.012 0.031-0.033 0.058-0.043 0.09L4.807 94.471c-0.294 0.885-0.064 1.86 0.595 2.519 0.469 0.47 1.098 0.722 1.741 0.722 0.26 0 0.522-0.042 0.777-0.126l23.287-7.762c0.021-0.007 0.039-0.021 0.061-0.029 0.167-0.061 0.329-0.137 0.48-0.232 0.01-0.006 0.02-0.009 0.029-0.015 0.142-0.093 0.274-0.198 0.395-0.318L54.26 67.136h10.392c3.442 0 6.241-2.8 6.241-6.243V50.498l15.009-15.011c0.147-0.148 0.267-0.317 0.37-0.494l13.008-13.006C100.24 21.026 100.24 19.468 99.279 18.508zM65.971 60.893c0 0.729-0.592 1.321-1.319 1.321h-5.47l6.789-6.792V60.893zM68.494 21.848l4.443 4.442L22.833 76.408l-4.442-4.441L68.494 21.848zM4.921 60.893V14.37c0-0.729 0.592-1.321 1.321-1.321h58.409c0.728 0 1.319 0.592 1.319 1.321v2.948L21.174 62.214H6.243C5.514 62.214 4.921 61.621 4.921 60.893zM11.033 91.359l4.946-14.839 9.893 9.893L11.033 91.359zM66.693 47.738c0 0-0.002 0-0.002 0.002l-2.67 2.671-33.59 33.597-4.119-4.12L76.418 29.77l4.121 4.12L66.693 47.738zM84.1 30.205L72.055 18.166l9.961-9.962 12.043 12.043L84.1 30.205z" fill="#ffffff" data-fill-palette-color="quaternary"></path><path d="M22.885 27.229c0-0.652-0.259-1.277-0.721-1.74l-5.917-5.916c-0.961-0.959-2.519-0.96-3.48 0.002-0.961 0.96-0.961 2.519 0 3.48l4.176 4.174-4.176 4.176c-0.962 0.962-0.962 2.52 0 3.48 0.48 0.48 1.11 0.722 1.74 0.722 0.629 0 1.259-0.241 1.74-0.721l5.917-5.916C22.625 28.508 22.885 27.883 22.885 27.229z" fill="#ffffff" data-fill-palette-color="quaternary"></path><path d="M26.482 35.606h7.048c1.359 0 2.461-1.102 2.461-2.461 0-1.358-1.102-2.462-2.461-2.462h-7.048c-1.359 0-2.46 1.104-2.46 2.462C24.021 34.505 25.123 35.606 26.482 35.606z" fill="#ffffff" data-fill-palette-color="quaternary"></path></g></svg></g></svg></g></svg></g></svg></g></svg></g><defs></defs></svg><rect width="395.52" height="72.76848651640485" fill="none" stroke="none" visibility="hidden"></rect></g></svg></g></svg>